<svg width="420" height="356" viewBox="0 0 420 356" fill="none" xmlns="http://www.w3.org/2000/svg">
<g clip-path="url(#clip0_249_38)">
<rect y="1" width="420" height="290" rx="2" fill="#6F59FA"/>
<rect x="45" y="46" width="330" height="200" rx="4" fill="#E8E8F0"/>
<rect x="187" y="288" width="45" height="50" fill="#6F59FA"/>
<rect x="110" y="316" width="200" height="45" rx="2" fill="#6F59FA"/>
<mask id="path-5-outside-1_249_38" maskUnits="userSpaceOnUse" x="133" y="73" width="153" height="156" fill="black">
<rect fill="white" x="133" y="73" width="153" height="156"/>
<path d="M219.432 93.802C221.321 102.522 223.356 111.751 225.536 121.488C227.716 131.225 229.969 140.89 232.294 150.482C234.765 160.074 237.235 169.375 239.706 178.386C242.177 187.397 244.502 195.608 246.682 203.02C248.426 194.881 250.097 185.871 251.696 175.988C253.295 165.96 254.821 155.496 256.274 144.596C257.873 133.696 259.326 122.433 260.634 110.806C261.942 99.1793 263.032 87.5527 263.904 75.926H283.088C279.745 105.138 275.967 132.025 271.752 156.586C267.683 181.147 262.887 204.619 257.364 227H237.526C235.346 219.879 232.948 211.958 230.332 203.238C227.861 194.518 225.391 185.507 222.92 176.206C220.449 166.759 218.051 157.24 215.726 147.648C213.401 138.056 211.293 128.755 209.404 119.744C207.515 128.755 205.407 138.056 203.082 147.648C200.757 157.24 198.359 166.759 195.888 176.206C193.417 185.507 190.874 194.518 188.258 203.238C185.787 211.958 183.462 219.879 181.282 227H161.444C155.921 204.619 151.053 181.147 146.838 156.586C142.769 132.025 139.063 105.138 135.72 75.926H155.558C156.43 87.5527 157.52 99.1793 158.828 110.806C160.136 122.287 161.517 133.551 162.97 144.596C164.569 155.496 166.167 165.96 167.766 175.988C169.365 185.871 171.036 194.881 172.78 203.02C174.96 195.608 177.285 187.397 179.756 178.386C182.227 169.375 184.625 160.074 186.95 150.482C189.421 140.89 191.746 131.225 193.926 121.488C196.106 111.751 198.141 102.522 200.03 93.802H219.432Z"/>
</mask>
<path d="M219.432 93.802C221.321 102.522 223.356 111.751 225.536 121.488C227.716 131.225 229.969 140.89 232.294 150.482C234.765 160.074 237.235 169.375 239.706 178.386C242.177 187.397 244.502 195.608 246.682 203.02C248.426 194.881 250.097 185.871 251.696 175.988C253.295 165.96 254.821 155.496 256.274 144.596C257.873 133.696 259.326 122.433 260.634 110.806C261.942 99.1793 263.032 87.5527 263.904 75.926H283.088C279.745 105.138 275.967 132.025 271.752 156.586C267.683 181.147 262.887 204.619 257.364 227H237.526C235.346 219.879 232.948 211.958 230.332 203.238C227.861 194.518 225.391 185.507 222.92 176.206C220.449 166.759 218.051 157.24 215.726 147.648C213.401 138.056 211.293 128.755 209.404 119.744C207.515 128.755 205.407 138.056 203.082 147.648C200.757 157.24 198.359 166.759 195.888 176.206C193.417 185.507 190.874 194.518 188.258 203.238C185.787 211.958 183.462 219.879 181.282 227H161.444C155.921 204.619 151.053 181.147 146.838 156.586C142.769 132.025 139.063 105.138 135.72 75.926H155.558C156.43 87.5527 157.52 99.1793 158.828 110.806C160.136 122.287 161.517 133.551 162.97 144.596C164.569 155.496 166.167 165.96 167.766 175.988C169.365 185.871 171.036 194.881 172.78 203.02C174.96 195.608 177.285 187.397 179.756 178.386C182.227 169.375 184.625 160.074 186.95 150.482C189.421 140.89 191.746 131.225 193.926 121.488C196.106 111.751 198.141 102.522 200.03 93.802H219.432Z" fill="#6F59FA"/>
<path d="M219.432 93.802L221.387 93.3785L221.045 91.802H219.432V93.802ZM225.536 121.488L227.488 121.051V121.051L225.536 121.488ZM232.294 150.482L230.35 150.953L230.354 150.967L230.357 150.981L232.294 150.482ZM239.706 178.386L237.777 178.915V178.915L239.706 178.386ZM246.682 203.02L244.763 203.584L248.638 203.439L246.682 203.02ZM251.696 175.988L253.67 176.307L253.671 176.303L251.696 175.988ZM256.274 144.596L254.295 144.306L254.293 144.319L254.292 144.332L256.274 144.596ZM260.634 110.806L258.647 110.582V110.582L260.634 110.806ZM263.904 75.926V73.926H262.048L261.91 75.7764L263.904 75.926ZM283.088 75.926L285.075 76.1534L285.33 73.926H283.088V75.926ZM271.752 156.586L269.781 156.248L269.779 156.259L271.752 156.586ZM257.364 227V229H258.93L259.306 227.479L257.364 227ZM237.526 227L235.614 227.585L236.047 229H237.526V227ZM230.332 203.238L228.408 203.783L228.412 203.798L228.416 203.813L230.332 203.238ZM222.92 176.206L220.985 176.712L220.987 176.719L222.92 176.206ZM215.726 147.648L213.782 148.119V148.119L215.726 147.648ZM209.404 119.744L211.361 119.334H207.447L209.404 119.744ZM203.082 147.648L201.138 147.177V147.177L203.082 147.648ZM195.888 176.206L197.821 176.719L197.823 176.712L195.888 176.206ZM188.258 203.238L186.342 202.663L186.338 202.678L186.334 202.693L188.258 203.238ZM181.282 227V229H182.761L183.194 227.585L181.282 227ZM161.444 227L159.502 227.479L159.878 229H161.444V227ZM146.838 156.586L144.865 156.913L144.867 156.924L146.838 156.586ZM135.72 75.926V73.926H133.478L133.733 76.1534L135.72 75.926ZM155.558 75.926L157.552 75.7764L157.414 73.926H155.558V75.926ZM158.828 110.806L156.841 111.03L156.841 111.032L158.828 110.806ZM162.97 144.596L160.987 144.857L160.989 144.872L160.991 144.886L162.97 144.596ZM167.766 175.988L165.791 176.303L165.792 176.307L167.766 175.988ZM172.78 203.02L170.824 203.439L174.699 203.584L172.78 203.02ZM179.756 178.386L181.685 178.915V178.915L179.756 178.386ZM186.95 150.482L185.013 149.983L185.01 149.997L185.006 150.011L186.95 150.482ZM193.926 121.488L191.974 121.051V121.051L193.926 121.488ZM200.03 93.802V91.802H198.417L198.075 93.3785L200.03 93.802ZM219.432 93.802L217.477 94.2255C219.368 102.95 221.403 112.184 223.584 121.925L225.536 121.488L227.488 121.051C225.309 111.318 223.275 102.094 221.387 93.3785L219.432 93.802ZM225.536 121.488L223.584 121.925C225.767 131.674 228.022 141.35 230.35 150.953L232.294 150.482L234.238 150.011C231.915 140.43 229.665 130.777 227.488 121.051L225.536 121.488ZM232.294 150.482L230.357 150.981C232.83 160.582 235.304 169.894 237.777 178.915L239.706 178.386L241.635 177.857C239.167 168.857 236.699 159.566 234.231 149.983L232.294 150.482ZM239.706 178.386L237.777 178.915C240.25 187.935 242.579 196.158 244.763 203.584L246.682 203.02L248.601 202.456C246.425 195.058 244.103 186.858 241.635 177.857L239.706 178.386ZM246.682 203.02L248.638 203.439C250.39 195.262 252.067 186.217 253.67 176.307L251.696 175.988L249.722 175.669C248.127 185.524 246.462 194.501 244.726 202.601L246.682 203.02ZM251.696 175.988L253.671 176.303C255.273 166.257 256.801 155.776 258.256 144.86L256.274 144.596L254.292 144.332C252.84 155.216 251.317 165.663 249.721 175.673L251.696 175.988ZM256.274 144.596L258.253 144.886C259.855 133.963 261.311 122.677 262.621 111.03L260.634 110.806L258.647 110.582C257.341 122.188 255.89 133.429 254.295 144.306L256.274 144.596ZM260.634 110.806L262.621 111.03C263.932 99.3784 265.025 87.727 265.898 76.0756L263.904 75.926L261.91 75.7764C261.039 87.3783 259.952 98.9803 258.647 110.582L260.634 110.806ZM263.904 75.926V77.926H283.088V75.926V73.926H263.904V75.926ZM283.088 75.926L281.101 75.6986C277.762 104.88 273.988 131.729 269.781 156.248L271.752 156.586L273.723 156.924C277.945 132.32 281.729 105.396 285.075 76.1534L283.088 75.926ZM271.752 156.586L269.779 156.259C265.717 180.773 260.932 204.194 255.422 226.521L257.364 227L259.306 227.479C264.842 205.044 269.648 181.521 273.725 156.913L271.752 156.586ZM257.364 227V225H237.526V227V229H257.364V227ZM237.526 227L239.438 226.415C237.26 219.297 234.863 211.38 232.248 202.663L230.332 203.238L228.416 203.813C231.033 212.536 233.432 220.46 235.614 227.585L237.526 227ZM230.332 203.238L232.256 202.693C229.789 193.984 227.321 184.984 224.853 175.693L222.92 176.206L220.987 176.719C223.46 186.031 225.934 195.052 228.408 203.783L230.332 203.238ZM222.92 176.206L224.855 175.7C222.387 166.265 219.992 156.757 217.67 147.177L215.726 147.648L213.782 148.119C216.11 157.723 218.511 167.254 220.985 176.712L222.92 176.206ZM215.726 147.648L217.67 147.177C215.349 137.604 213.246 128.323 211.361 119.334L209.404 119.744L207.447 120.154C209.34 129.187 211.452 138.508 213.782 148.119L215.726 147.648ZM209.404 119.744L207.447 119.334C205.562 128.323 203.459 137.604 201.138 147.177L203.082 147.648L205.026 148.119C207.356 138.508 209.468 129.187 211.361 120.154L209.404 119.744ZM203.082 147.648L201.138 147.177C198.816 156.757 196.421 166.265 193.953 175.7L195.888 176.206L197.823 176.712C200.297 167.254 202.698 157.723 205.026 148.119L203.082 147.648ZM195.888 176.206L193.955 175.693C191.49 184.975 188.952 193.965 186.342 202.663L188.258 203.238L190.174 203.813C192.796 195.071 195.345 186.04 197.821 176.719L195.888 176.206ZM188.258 203.238L186.334 202.693C183.866 211.402 181.545 219.309 179.37 226.415L181.282 227L183.194 227.585C185.379 220.448 187.709 212.514 190.182 203.783L188.258 203.238ZM181.282 227V225H161.444V227V229H181.282V227ZM161.444 227L163.386 226.521C157.875 204.19 153.016 180.766 148.809 156.248L146.838 156.586L144.867 156.924C149.089 181.529 153.967 205.048 159.502 227.479L161.444 227ZM146.838 156.586L148.811 156.259C144.748 131.736 141.047 104.883 137.707 75.6986L135.72 75.926L133.733 76.1534C137.079 105.393 140.789 132.313 144.865 156.913L146.838 156.586ZM135.72 75.926V77.926H155.558V75.926V73.926H135.72V75.926ZM155.558 75.926L153.564 76.0756C154.437 87.727 155.53 99.3784 156.841 111.03L158.828 110.806L160.815 110.582C159.51 98.9803 158.423 87.3783 157.552 75.7764L155.558 75.926ZM158.828 110.806L156.841 111.032C158.15 122.525 159.532 133.8 160.987 144.857L162.97 144.596L164.953 144.335C163.501 133.302 162.122 122.05 160.815 110.58L158.828 110.806ZM162.97 144.596L160.991 144.886C162.591 155.794 164.191 166.266 165.791 176.303L167.766 175.988L169.741 175.673C168.144 165.654 166.546 155.198 164.949 144.306L162.97 144.596ZM167.766 175.988L165.792 176.307C167.395 186.217 169.072 195.262 170.824 203.439L172.78 203.02L174.736 202.601C173 194.501 171.335 185.524 169.74 175.669L167.766 175.988ZM172.78 203.02L174.699 203.584C176.883 196.158 179.212 187.935 181.685 178.915L179.756 178.386L177.827 177.857C175.359 186.858 173.037 195.058 170.861 202.456L172.78 203.02ZM179.756 178.386L181.685 178.915C184.161 169.884 186.564 160.563 188.894 150.953L186.95 150.482L185.006 150.011C182.685 159.585 180.292 168.867 177.827 177.857L179.756 178.386ZM186.95 150.482L188.887 150.981C191.363 141.368 193.693 131.683 195.878 121.925L193.926 121.488L191.974 121.051C189.799 130.768 187.479 140.412 185.013 149.983L186.95 150.482ZM193.926 121.488L195.878 121.925C198.059 112.184 200.094 102.95 201.985 94.2255L200.03 93.802L198.075 93.3785C196.187 102.094 194.153 111.318 191.974 121.051L193.926 121.488ZM200.03 93.802V95.802H219.432V93.802V91.802H200.03V93.802Z" fill="#2D1D98" mask="url(#path-5-outside-1_249_38)"/>
</g>
<defs>
<clipPath id="clip0_249_38">
<rect width="420" height="356" fill="white" transform="matrix(-1 0 0 1 420 0)"/>
</clipPath>
</defs>
</svg>
