<svg width="535" height="594" viewBox="0 0 535 594" fill="none" xmlns="http://www.w3.org/2000/svg">
<g clip-path="url(#clip0_247_21)">
<path d="M534.808 495.273V321.854V163.33C534.808 135.833 512.512 113.533 485.011 113.533H352.647C349.089 100.479 342.655 88.6412 334.013 78.7342L400.894 11.8532C402.231 10.5162 400.767 6.89623 397.619 3.74923C394.491 0.617229 390.865 -0.837783 389.522 0.493217L322.411 67.6042C307.305 55.5792 288.211 48.3432 267.404 48.3432C246.597 48.3432 227.497 55.5782 212.397 67.6072L145.273 0.493217C143.942 -0.837783 140.316 0.617229 137.187 3.74923C134.04 6.89623 132.576 10.5152 133.913 11.8532L200.782 78.7412C192.146 88.6482 185.713 100.483 182.16 113.534H49.784C22.283 113.534 0 135.833 0 163.331V321.856V495.275C0 522.782 22.284 545.077 49.784 545.077H134.828L101.899 578.012C98.449 581.458 98.449 587.045 101.899 590.506C105.342 593.953 110.935 593.953 114.384 590.506L159.799 545.076H375.01L420.413 590.506C423.862 593.953 429.455 593.953 432.904 590.506C436.353 587.044 436.353 581.458 432.904 578.012L399.969 545.077H485.012C512.512 545.075 534.808 522.78 534.808 495.273ZM471.57 206.468C482.99 206.468 492.25 215.719 492.25 227.142C492.25 238.568 482.99 247.819 471.57 247.819C460.161 247.819 450.89 238.568 450.89 227.142C450.891 215.719 460.162 206.468 471.57 206.468ZM471.57 259.103C482.99 259.103 492.25 268.354 492.25 279.762C492.25 291.185 482.99 300.439 471.57 300.439C460.161 300.439 450.89 291.186 450.89 279.762C450.891 268.354 460.162 259.103 471.57 259.103ZM433.872 377.276H509.583C513.529 377.276 516.712 380.468 516.712 384.402C516.712 388.336 513.529 391.531 509.583 391.531H433.872C429.926 391.531 426.73 388.335 426.73 384.402C426.73 380.469 429.926 377.276 433.872 377.276ZM433.872 408.462H509.583C513.529 408.462 516.712 411.657 516.712 415.573C516.712 419.524 513.529 422.717 509.583 422.717H433.872C429.926 422.717 426.73 419.524 426.73 415.573C426.73 411.658 429.926 408.462 433.872 408.462ZM402.317 448.131C402.317 467.912 387.907 483.944 370.156 483.944H230.523H89.074C71.317 483.944 56.914 467.912 56.914 448.131V209.361C56.914 189.583 71.318 173.548 89.074 173.548H230.523H370.156C387.907 173.548 402.317 189.583 402.317 209.361V448.131ZM426.73 446.763C426.73 442.829 429.925 439.634 433.872 439.634H509.583C513.529 439.634 516.712 442.829 516.712 446.763C516.712 450.697 513.529 453.889 509.583 453.889H433.872C429.926 453.889 426.73 450.696 426.73 446.763Z" fill="#616E7D"/>
<path d="M230.523 173.548H89.0741C71.3171 173.548 56.9141 189.583 56.9141 209.361V448.13C56.9141 467.911 71.3181 483.943 89.0741 483.943H230.523H370.156C387.907 483.943 402.317 467.911 402.317 448.13V209.361C402.317 189.583 387.907 173.548 370.156 173.548H230.523Z" fill="#AAD4C8"/>
<path d="M471.571 206.468C460.162 206.468 450.891 215.719 450.891 227.142C450.891 238.568 460.162 247.819 471.571 247.819C482.991 247.819 492.251 238.568 492.251 227.142C492.251 215.719 482.991 206.468 471.571 206.468Z" fill="white"/>
<path d="M471.571 259.104C460.162 259.104 450.891 268.355 450.891 279.763C450.891 291.186 460.162 300.44 471.571 300.44C482.991 300.44 492.251 291.187 492.251 279.763C492.251 268.355 482.991 259.104 471.571 259.104Z" fill="#AAD4C8"/>
<path d="M433.872 377.276C429.926 377.276 426.73 380.468 426.73 384.402C426.73 388.336 429.925 391.531 433.872 391.531H509.583C513.529 391.531 516.712 388.335 516.712 384.402C516.712 380.468 513.529 377.276 509.583 377.276H433.872Z" fill="white"/>
<path d="M433.872 408.462C429.926 408.462 426.73 411.657 426.73 415.573C426.73 419.524 429.925 422.717 433.872 422.717H509.583C513.529 422.717 516.712 419.524 516.712 415.573C516.712 411.657 513.529 408.462 509.583 408.462H433.872Z" fill="white"/>
<path d="M433.872 439.634C429.926 439.634 426.73 442.829 426.73 446.763C426.73 450.697 429.925 453.889 433.872 453.889H509.583C513.529 453.889 516.712 450.696 516.712 446.763C516.712 442.829 513.529 439.634 509.583 439.634H433.872Z" fill="white"/>
</g>
<defs>
<clipPath id="clip0_247_21">
<rect width="535" height="594" fill="white"/>
</clipPath>
</defs>
</svg>
