<svg width="420" height="356" viewBox="0 0 420 356" fill="none" xmlns="http://www.w3.org/2000/svg">
<g clip-path="url(#clip0_249_38)">
<rect y="1" width="420" height="290" rx="2" fill="#7C6AF7"/>
<rect x="45" y="46" width="330" height="200" rx="4" fill="#E8E8F0"/>
<rect x="187" y="288" width="45" height="50" fill="#7C6AF7"/>
<rect x="110" y="316" width="200" height="45" rx="2" fill="#7C6AF7"/>
<path d="M219.432 93.802C221.321 102.522 223.356 111.751 225.536 121.488C227.716 131.225 229.969 140.89 232.294 150.482C234.765 160.074 237.235 169.375 239.706 178.386C242.177 187.397 244.502 195.608 246.682 203.02C248.426 194.881 250.097 185.871 251.696 175.988C253.295 165.96 254.821 155.496 256.274 144.596C257.873 133.696 259.326 122.433 260.634 110.806C261.942 99.1793 263.032 87.5527 263.904 75.926H283.088C279.745 105.138 275.967 132.025 271.752 156.586C267.683 181.147 262.887 204.619 257.364 227H237.526C235.346 219.879 232.948 211.958 230.332 203.238C227.861 194.518 225.391 185.507 222.92 176.206C220.449 166.759 218.051 157.24 215.726 147.648C213.401 138.056 211.293 128.755 209.404 119.744C207.515 128.755 205.407 138.056 203.082 147.648C200.757 157.24 198.359 166.759 195.888 176.206C193.417 185.507 190.874 194.518 188.258 203.238C185.787 211.958 183.462 219.879 181.282 227H161.444C155.921 204.619 151.053 181.147 146.838 156.586C142.769 132.025 139.063 105.138 135.72 75.926H155.558C156.43 87.5527 157.52 99.1793 158.828 110.806C160.136 122.287 161.517 133.551 162.97 144.596C164.569 155.496 166.167 165.96 167.766 175.988C169.365 185.871 171.036 194.881 172.78 203.02C174.96 195.608 177.285 187.397 179.756 178.386C182.227 169.375 184.625 160.074 186.95 150.482C189.421 140.89 191.746 131.225 193.926 121.488C196.106 111.751 198.141 102.522 200.03 93.802H219.432Z" fill="#7C6AF7"/>
</g>
<defs>
<clipPath id="clip0_249_38">
<rect width="420" height="356" fill="white" transform="matrix(-1 0 0 1 420 0)"/>
</clipPath>
</defs>
</svg>
