<svg width="1010" height="418" viewBox="0 0 1010 418" fill="none" xmlns="http://www.w3.org/2000/svg">
<g clip-path="url(#clip0_249_30)">
<rect width="700" height="350" rx="2" fill="#7C6AF7"/>
<rect x="35" y="35" width="630" height="280" rx="4" fill="#E8E8F0"/>
<rect x="330" y="350" width="40" height="50" fill="#7C6AF7"/>
<rect x="225" y="380" width="250" height="40" rx="2" fill="#7C6AF7"/>
<path d="M766.64 275.6C753.813 275.253 744.627 272.133 739.08 266.24C733.533 260.173 730.76 250.64 730.76 237.64V75.14L753.12 71.24V238.16C753.12 244.227 754.333 248.647 756.76 251.42C759.187 254.02 763.433 255.84 769.5 256.88L766.64 275.6ZM816.863 273H794.503V136.5H816.863V273ZM805.683 112.32C801.696 112.32 798.229 111.02 795.283 108.42C792.509 105.647 791.123 102.007 791.123 97.5C791.123 92.9933 792.509 89.44 795.283 86.84C798.229 84.0667 801.696 82.68 805.683 82.68C809.669 82.68 813.049 84.0667 815.823 86.84C818.769 89.44 820.243 92.9933 820.243 97.5C820.243 102.007 818.769 105.647 815.823 108.42C813.049 111.02 809.669 112.32 805.683 112.32ZM876.451 257.14C883.038 257.14 887.978 255.32 891.271 251.68C894.738 247.867 896.471 242.927 896.471 236.86C896.471 233.047 895.778 229.84 894.391 227.24C893.005 224.467 891.185 222.04 888.931 219.96C886.678 217.88 884.078 216.06 881.131 214.5C878.185 212.767 875.238 210.947 872.291 209.04C869.345 207.307 866.485 205.313 863.711 203.06C860.938 200.633 858.425 197.947 856.171 195C854.091 191.88 852.358 188.413 850.971 184.6C849.758 180.613 849.151 176.02 849.151 170.82C849.151 159.553 852.618 150.453 859.551 143.52C866.658 136.587 876.191 133.12 888.151 133.12C893.178 133.12 897.945 133.813 902.451 135.2C906.958 136.413 910.685 137.8 913.631 139.36L908.691 157.3C905.571 155.567 902.451 154.267 899.331 153.4C896.211 152.533 892.831 152.1 889.191 152.1C883.645 152.1 879.225 153.747 875.931 157.04C872.638 160.16 870.991 164.753 870.991 170.82C870.991 174.287 871.598 177.32 872.811 179.92C874.025 182.347 875.585 184.6 877.491 186.68C879.571 188.587 881.825 190.407 884.251 192.14C886.851 193.873 889.538 195.52 892.311 197.08C895.605 198.987 898.811 201.067 901.931 203.32C905.225 205.573 908.085 208.26 910.511 211.38C913.111 214.327 915.191 217.88 916.751 222.04C918.311 226.027 919.091 230.88 919.091 236.6C919.091 248.56 915.538 258.18 908.431 265.46C901.498 272.74 891.271 276.38 877.751 276.38C870.818 276.38 864.578 275.427 859.031 273.52C853.485 271.613 849.325 269.88 846.551 268.32L851.231 249.86C853.831 251.247 857.298 252.807 861.631 254.54C866.138 256.273 871.078 257.14 876.451 257.14ZM966.885 136.5H1001.2V155.74H966.885V230.88C966.885 240.24 968.531 246.827 971.825 250.64C975.291 254.28 979.885 256.1 985.605 256.1C988.551 256.1 991.325 255.667 993.925 254.8C996.698 253.933 999.038 252.893 1000.94 251.68L1005.36 269.62C998.258 273.78 990.718 275.86 982.745 275.86C969.918 275.86 960.298 272.307 953.885 265.2C947.645 257.92 944.525 245.96 944.525 229.32V99.84L966.885 95.94V136.5Z" fill="#E8E8F0"/>
<path d="M157.24 114.14C159.493 124.54 161.92 135.547 164.52 147.16C167.12 158.773 169.807 170.3 172.58 181.74C175.527 193.18 178.473 204.273 181.42 215.02C184.367 225.767 187.14 235.56 189.74 244.4C191.82 234.693 193.813 223.947 195.72 212.16C197.627 200.2 199.447 187.72 201.18 174.72C203.087 161.72 204.82 148.287 206.38 134.42C207.94 120.553 209.24 106.687 210.28 92.82H233.16C229.173 127.66 224.667 159.727 219.64 189.02C214.787 218.313 209.067 246.307 202.48 273H178.82C176.22 264.507 173.36 255.06 170.24 244.66C167.293 234.26 164.347 223.513 161.4 212.42C158.453 201.153 155.593 189.8 152.82 178.36C150.047 166.92 147.533 155.827 145.28 145.08C143.027 155.827 140.513 166.92 137.74 178.36C134.967 189.8 132.107 201.153 129.16 212.42C126.213 223.513 123.18 234.26 120.06 244.66C117.113 255.06 114.34 264.507 111.74 273H88.08C81.4933 246.307 75.6867 218.313 70.66 189.02C65.8067 159.727 61.3867 127.66 57.4 92.82H81.06C82.1 106.687 83.4 120.553 84.96 134.42C86.52 148.113 88.1667 161.547 89.9 174.72C91.8067 187.72 93.7133 200.2 95.62 212.16C97.5267 223.947 99.52 234.693 101.6 244.4C104.2 235.56 106.973 225.767 109.92 215.02C112.867 204.273 115.727 193.18 118.5 181.74C121.447 170.3 124.22 158.773 126.82 147.16C129.42 135.547 131.847 124.54 134.1 114.14H157.24ZM262.075 139.36C266.582 137.453 271.348 135.98 276.375 134.94C281.402 133.727 286.862 133.12 292.755 133.12C304.888 133.12 314.768 136.933 322.395 144.56C330.022 152.013 333.835 163.713 333.835 179.66V270.14C327.595 271.873 321.182 273.26 314.595 274.3C308.182 275.34 301.855 275.86 295.615 275.86C289.375 275.86 283.482 275.08 277.935 273.52C272.562 271.96 267.795 269.447 263.635 265.98C259.648 262.513 256.442 258.18 254.015 252.98C251.588 247.607 250.375 241.107 250.375 233.48C250.375 226.373 251.415 220.22 253.495 215.02C255.748 209.647 258.782 205.227 262.595 201.76C266.408 198.12 270.915 195.433 276.115 193.7C281.315 191.793 286.948 190.84 293.015 190.84C298.735 190.84 305.062 191.533 311.995 192.92V180.44C311.995 170.387 310.002 163.367 306.015 159.38C302.202 155.393 296.655 153.4 289.375 153.4C285.388 153.4 281.575 153.833 277.935 154.7C274.468 155.393 270.742 156.607 266.755 158.34L262.075 139.36ZM272.735 233.22C272.735 241.193 274.815 247.087 278.975 250.9C283.135 254.713 289.028 256.62 296.655 256.62C301.335 256.62 306.448 256.013 311.995 254.8V211.38C306.795 209.993 301.682 209.3 296.655 209.3C293.362 209.3 290.242 209.733 287.295 210.6C284.348 211.293 281.748 212.593 279.495 214.5C277.415 216.233 275.768 218.66 274.555 221.78C273.342 224.727 272.735 228.54 272.735 233.22ZM393.529 136.5H427.849V155.74H393.529V230.88C393.529 240.24 395.176 246.827 398.469 250.64C401.936 254.28 406.529 256.1 412.249 256.1C415.196 256.1 417.969 255.667 420.569 254.8C423.343 253.933 425.683 252.893 427.589 251.68L432.009 269.62C424.903 273.78 417.363 275.86 409.389 275.86C396.563 275.86 386.943 272.307 380.529 265.2C374.289 257.92 371.169 245.96 371.169 229.32V99.84L393.529 95.94V136.5ZM496.595 276.38C487.235 276.38 479.435 274.56 473.195 270.92C466.955 267.28 461.842 262.34 457.855 256.1C454.042 249.687 451.268 242.147 449.535 233.48C447.975 224.813 447.195 215.367 447.195 205.14C447.195 182.607 451.268 165.013 459.415 152.36C467.735 139.533 480.215 133.12 496.855 133.12C501.882 133.12 506.388 133.727 510.375 134.94C514.362 136.153 518.088 137.713 521.555 139.62L515.835 158.08C510.462 154.613 504.482 152.88 497.895 152.88C488.535 152.88 481.602 157.127 477.095 165.62C472.762 174.113 470.595 187.287 470.595 205.14C470.595 212.593 471.028 219.527 471.895 225.94C472.762 232.18 474.235 237.553 476.315 242.06C478.568 246.567 481.428 250.12 484.895 252.72C488.535 255.32 493.128 256.62 498.675 256.62C502.488 256.62 505.868 256.187 508.815 255.32C511.935 254.28 514.882 252.98 517.655 251.42L522.595 268.84C519.822 270.747 516.095 272.48 511.415 274.04C506.908 275.6 501.968 276.38 496.595 276.38ZM546.655 273V75.14L569.015 71.24V137.28C572.308 136.24 575.862 135.373 579.675 134.68C583.662 133.987 587.648 133.64 591.635 133.64C597.355 133.64 602.728 134.593 607.755 136.5C612.782 138.233 617.115 141.267 620.755 145.6C624.568 149.933 627.515 155.827 629.595 163.28C631.848 170.56 632.975 179.66 632.975 190.58V273H610.615V192.4C610.615 178.88 608.882 169 605.415 162.76C601.948 156.52 595.448 153.4 585.915 153.4C580.888 153.4 575.255 154.267 569.015 156V273H546.655Z" fill="#7C6AF7"/>
</g>
<defs>
<clipPath id="clip0_249_30">
<rect width="1010" height="418" fill="white" transform="matrix(-1 0 0 1 1010 0)"/>
</clipPath>
</defs>
</svg>
