<svg width="1010" height="418" viewBox="0 0 1010 418" fill="none" xmlns="http://www.w3.org/2000/svg">
<g clip-path="url(#clip0_249_30)">
<mask id="path-1-inside-1_249_30" fill="white">
<rect width="700" height="350" rx="2"/>
</mask>
<rect width="700" height="350" rx="2" fill="#E8E8F0" stroke="#6F59FA" stroke-width="56" mask="url(#path-1-inside-1_249_30)"/>
<rect x="330" y="350" width="40" height="50" fill="#6F59FA"/>
<rect x="225" y="380" width="250" height="40" rx="2" fill="#6F59FA"/>
<mask id="path-4-outside-2_249_30" maskUnits="userSpaceOnUse" x="728" y="68" width="280" height="211" fill="black">
<rect fill="white" x="728" y="68" width="280" height="211"/>
<path d="M766.64 275.6C753.813 275.253 744.627 272.133 739.08 266.24C733.533 260.173 730.76 250.64 730.76 237.64V75.14L753.12 71.24V238.16C753.12 244.227 754.333 248.647 756.76 251.42C759.187 254.02 763.433 255.84 769.5 256.88L766.64 275.6ZM816.863 273H794.503V136.5H816.863V273ZM805.683 112.32C801.696 112.32 798.229 111.02 795.283 108.42C792.509 105.647 791.123 102.007 791.123 97.5C791.123 92.9933 792.509 89.44 795.283 86.84C798.229 84.0667 801.696 82.68 805.683 82.68C809.669 82.68 813.049 84.0667 815.823 86.84C818.769 89.44 820.243 92.9933 820.243 97.5C820.243 102.007 818.769 105.647 815.823 108.42C813.049 111.02 809.669 112.32 805.683 112.32ZM876.451 257.14C883.038 257.14 887.978 255.32 891.271 251.68C894.738 247.867 896.471 242.927 896.471 236.86C896.471 233.047 895.778 229.84 894.391 227.24C893.005 224.467 891.185 222.04 888.931 219.96C886.678 217.88 884.078 216.06 881.131 214.5C878.185 212.767 875.238 210.947 872.291 209.04C869.345 207.307 866.485 205.313 863.711 203.06C860.938 200.633 858.425 197.947 856.171 195C854.091 191.88 852.358 188.413 850.971 184.6C849.758 180.613 849.151 176.02 849.151 170.82C849.151 159.553 852.618 150.453 859.551 143.52C866.658 136.587 876.191 133.12 888.151 133.12C893.178 133.12 897.945 133.813 902.451 135.2C906.958 136.413 910.685 137.8 913.631 139.36L908.691 157.3C905.571 155.567 902.451 154.267 899.331 153.4C896.211 152.533 892.831 152.1 889.191 152.1C883.645 152.1 879.225 153.747 875.931 157.04C872.638 160.16 870.991 164.753 870.991 170.82C870.991 174.287 871.598 177.32 872.811 179.92C874.025 182.347 875.585 184.6 877.491 186.68C879.571 188.587 881.825 190.407 884.251 192.14C886.851 193.873 889.538 195.52 892.311 197.08C895.605 198.987 898.811 201.067 901.931 203.32C905.225 205.573 908.085 208.26 910.511 211.38C913.111 214.327 915.191 217.88 916.751 222.04C918.311 226.027 919.091 230.88 919.091 236.6C919.091 248.56 915.538 258.18 908.431 265.46C901.498 272.74 891.271 276.38 877.751 276.38C870.818 276.38 864.578 275.427 859.031 273.52C853.485 271.613 849.325 269.88 846.551 268.32L851.231 249.86C853.831 251.247 857.298 252.807 861.631 254.54C866.138 256.273 871.078 257.14 876.451 257.14ZM966.885 136.5H1001.2V155.74H966.885V230.88C966.885 240.24 968.531 246.827 971.825 250.64C975.291 254.28 979.885 256.1 985.605 256.1C988.551 256.1 991.325 255.667 993.925 254.8C996.698 253.933 999.038 252.893 1000.94 251.68L1005.36 269.62C998.258 273.78 990.718 275.86 982.745 275.86C969.918 275.86 960.298 272.307 953.885 265.2C947.645 257.92 944.525 245.96 944.525 229.32V99.84L966.885 95.94V136.5Z"/>
</mask>
<path d="M766.64 275.6C753.813 275.253 744.627 272.133 739.08 266.24C733.533 260.173 730.76 250.64 730.76 237.64V75.14L753.12 71.24V238.16C753.12 244.227 754.333 248.647 756.76 251.42C759.187 254.02 763.433 255.84 769.5 256.88L766.64 275.6ZM816.863 273H794.503V136.5H816.863V273ZM805.683 112.32C801.696 112.32 798.229 111.02 795.283 108.42C792.509 105.647 791.123 102.007 791.123 97.5C791.123 92.9933 792.509 89.44 795.283 86.84C798.229 84.0667 801.696 82.68 805.683 82.68C809.669 82.68 813.049 84.0667 815.823 86.84C818.769 89.44 820.243 92.9933 820.243 97.5C820.243 102.007 818.769 105.647 815.823 108.42C813.049 111.02 809.669 112.32 805.683 112.32ZM876.451 257.14C883.038 257.14 887.978 255.32 891.271 251.68C894.738 247.867 896.471 242.927 896.471 236.86C896.471 233.047 895.778 229.84 894.391 227.24C893.005 224.467 891.185 222.04 888.931 219.96C886.678 217.88 884.078 216.06 881.131 214.5C878.185 212.767 875.238 210.947 872.291 209.04C869.345 207.307 866.485 205.313 863.711 203.06C860.938 200.633 858.425 197.947 856.171 195C854.091 191.88 852.358 188.413 850.971 184.6C849.758 180.613 849.151 176.02 849.151 170.82C849.151 159.553 852.618 150.453 859.551 143.52C866.658 136.587 876.191 133.12 888.151 133.12C893.178 133.12 897.945 133.813 902.451 135.2C906.958 136.413 910.685 137.8 913.631 139.36L908.691 157.3C905.571 155.567 902.451 154.267 899.331 153.4C896.211 152.533 892.831 152.1 889.191 152.1C883.645 152.1 879.225 153.747 875.931 157.04C872.638 160.16 870.991 164.753 870.991 170.82C870.991 174.287 871.598 177.32 872.811 179.92C874.025 182.347 875.585 184.6 877.491 186.68C879.571 188.587 881.825 190.407 884.251 192.14C886.851 193.873 889.538 195.52 892.311 197.08C895.605 198.987 898.811 201.067 901.931 203.32C905.225 205.573 908.085 208.26 910.511 211.38C913.111 214.327 915.191 217.88 916.751 222.04C918.311 226.027 919.091 230.88 919.091 236.6C919.091 248.56 915.538 258.18 908.431 265.46C901.498 272.74 891.271 276.38 877.751 276.38C870.818 276.38 864.578 275.427 859.031 273.52C853.485 271.613 849.325 269.88 846.551 268.32L851.231 249.86C853.831 251.247 857.298 252.807 861.631 254.54C866.138 256.273 871.078 257.14 876.451 257.14ZM966.885 136.5H1001.2V155.74H966.885V230.88C966.885 240.24 968.531 246.827 971.825 250.64C975.291 254.28 979.885 256.1 985.605 256.1C988.551 256.1 991.325 255.667 993.925 254.8C996.698 253.933 999.038 252.893 1000.94 251.68L1005.36 269.62C998.258 273.78 990.718 275.86 982.745 275.86C969.918 275.86 960.298 272.307 953.885 265.2C947.645 257.92 944.525 245.96 944.525 229.32V99.84L966.885 95.94V136.5Z" fill="#E8E8F0"/>
<path d="M766.64 275.6L766.586 277.599L768.35 277.647L768.617 275.902L766.64 275.6ZM739.08 266.24L737.604 267.59L737.614 267.6L737.624 267.611L739.08 266.24ZM730.76 75.14L730.416 73.1697L728.76 73.4586V75.14H730.76ZM753.12 71.24H755.12V68.861L752.776 69.2697L753.12 71.24ZM756.76 251.42L755.255 252.737L755.276 252.761L755.298 252.785L756.76 251.42ZM769.5 256.88L771.477 257.182L771.774 255.241L769.838 254.909L769.5 256.88ZM766.64 275.6L766.694 273.601C754.098 273.26 745.553 270.2 740.536 264.869L739.08 266.24L737.624 267.611C743.7 274.067 753.528 277.246 766.586 277.599L766.64 275.6ZM739.08 266.24L740.556 264.89C735.496 259.356 732.76 250.418 732.76 237.64H730.76H728.76C728.76 250.862 731.571 260.991 737.604 267.59L739.08 266.24ZM730.76 237.64H732.76V75.14H730.76H728.76V237.64H730.76ZM730.76 75.14L731.104 77.1102L753.464 73.2103L753.12 71.24L752.776 69.2697L730.416 73.1697L730.76 75.14ZM753.12 71.24H751.12V238.16H753.12H755.12V71.24H753.12ZM753.12 238.16H751.12C751.12 244.419 752.359 249.427 755.255 252.737L756.76 251.42L758.265 250.103C756.308 247.866 755.12 244.034 755.12 238.16H753.12ZM756.76 251.42L755.298 252.785C758.172 255.864 762.947 257.786 769.162 258.851L769.5 256.88L769.838 254.909C763.92 253.894 760.201 252.176 758.222 250.055L756.76 251.42ZM769.5 256.88L767.523 256.578L764.663 275.298L766.64 275.6L768.617 275.902L771.477 257.182L769.5 256.88ZM816.863 273V275H818.863V273H816.863ZM794.503 273H792.503V275H794.503V273ZM794.503 136.5V134.5H792.503V136.5H794.503ZM816.863 136.5H818.863V134.5H816.863V136.5ZM795.283 108.42L793.868 109.834L793.913 109.878L793.959 109.92L795.283 108.42ZM795.283 86.84L796.651 88.2991L796.653 88.2964L795.283 86.84ZM815.823 86.84L814.408 88.2542L814.453 88.2984L814.499 88.3397L815.823 86.84ZM815.823 108.42L817.191 109.879L817.193 109.876L815.823 108.42ZM816.863 273V271H794.503V273V275H816.863V273ZM794.503 273H796.503V136.5H794.503H792.503V273H794.503ZM794.503 136.5V138.5H816.863V136.5V134.5H794.503V136.5ZM816.863 136.5H814.863V273H816.863H818.863V136.5H816.863ZM805.683 112.32V110.32C802.176 110.32 799.181 109.193 796.606 106.92L795.283 108.42L793.959 109.92C797.277 112.847 801.216 114.32 805.683 114.32V112.32ZM795.283 108.42L796.697 107.006C794.355 104.664 793.123 101.562 793.123 97.5H791.123H789.123C789.123 102.451 790.663 106.629 793.868 109.834L795.283 108.42ZM791.123 97.5H793.123C793.123 93.4348 794.355 90.451 796.651 88.2991L795.283 86.84L793.915 85.3809C790.664 88.429 789.123 92.5518 789.123 97.5H791.123ZM795.283 86.84L796.653 88.2964C799.235 85.8664 802.214 84.68 805.683 84.68V82.68V80.68C801.178 80.68 797.223 82.2669 793.912 85.3836L795.283 86.84ZM805.683 82.68V84.68C809.149 84.68 812.017 85.8628 814.408 88.2542L815.823 86.84L817.237 85.4258C814.082 82.2705 810.19 80.68 805.683 80.68V82.68ZM815.823 86.84L814.499 88.3397C816.95 90.5023 818.243 93.4738 818.243 97.5H820.243H822.243C822.243 92.5128 820.588 88.3776 817.146 85.3403L815.823 86.84ZM820.243 97.5H818.243C818.243 101.525 816.949 104.613 814.452 106.964L815.823 108.42L817.193 109.876C820.589 106.68 822.243 102.489 822.243 97.5H820.243ZM815.823 108.42L814.455 106.961C812.072 109.195 809.188 110.32 805.683 110.32V112.32V114.32C810.15 114.32 814.027 112.845 817.191 109.879L815.823 108.42ZM891.271 251.68L889.792 250.335L889.788 250.338L891.271 251.68ZM894.391 227.24L892.603 228.134L892.614 228.158L892.627 228.181L894.391 227.24ZM888.931 219.96L890.288 218.49V218.49L888.931 219.96ZM881.131 214.5L880.117 216.224L880.156 216.247L880.196 216.268L881.131 214.5ZM872.291 209.04L873.378 207.361L873.342 207.338L873.305 207.316L872.291 209.04ZM863.711 203.06L862.394 204.565L862.422 204.589L862.45 204.612L863.711 203.06ZM856.171 195L854.507 196.109L854.543 196.163L854.583 196.215L856.171 195ZM850.971 184.6L849.058 185.182L849.074 185.233L849.092 185.283L850.971 184.6ZM859.551 143.52L858.155 142.088L858.146 142.097L858.137 142.106L859.551 143.52ZM902.451 135.2L901.863 137.112L901.897 137.122L901.931 137.131L902.451 135.2ZM913.631 139.36L915.56 139.891L915.986 138.343L914.567 137.592L913.631 139.36ZM908.691 157.3L907.72 159.048L909.944 160.284L910.62 157.831L908.691 157.3ZM899.331 153.4L898.796 155.327V155.327L899.331 153.4ZM875.931 157.04L877.307 158.492L877.327 158.473L877.346 158.454L875.931 157.04ZM872.811 179.92L870.999 180.766L871.01 180.79L871.023 180.814L872.811 179.92ZM877.491 186.68L876.017 188.031L876.076 188.096L876.14 188.154L877.491 186.68ZM884.251 192.14L883.089 193.767L883.115 193.786L883.142 193.804L884.251 192.14ZM892.311 197.08L893.313 195.349L893.303 195.343L893.292 195.337L892.311 197.08ZM901.931 203.32L900.76 204.941L900.781 204.956L900.802 204.971L901.931 203.32ZM910.511 211.38L908.933 212.608L908.971 212.657L909.012 212.703L910.511 211.38ZM916.751 222.04L914.879 222.742L914.884 222.756L914.889 222.769L916.751 222.04ZM908.431 265.46L907 264.063L906.992 264.072L906.983 264.081L908.431 265.46ZM859.031 273.52L859.682 271.629V271.629L859.031 273.52ZM846.551 268.32L844.613 267.829L844.236 269.313L845.571 270.063L846.551 268.32ZM851.231 249.86L852.173 248.095L849.92 246.894L849.293 249.368L851.231 249.86ZM861.631 254.54L860.889 256.397L860.901 256.402L860.913 256.407L861.631 254.54ZM876.451 257.14V259.14C883.401 259.14 888.965 257.211 892.754 253.022L891.271 251.68L889.788 250.338C886.991 253.429 882.675 255.14 876.451 255.14V257.14ZM891.271 251.68L892.751 253.025C896.611 248.78 898.471 243.331 898.471 236.86H896.471H894.471C894.471 242.523 892.866 246.953 889.792 250.335L891.271 251.68ZM896.471 236.86H898.471C898.471 232.812 897.736 229.261 896.156 226.299L894.391 227.24L892.627 228.181C893.82 230.419 894.471 233.281 894.471 236.86H896.471ZM894.391 227.24L896.18 226.346C894.687 223.358 892.721 220.736 890.288 218.49L888.931 219.96L887.575 221.43C889.648 223.344 891.323 225.575 892.603 228.134L894.391 227.24ZM888.931 219.96L890.288 218.49C887.897 216.284 885.153 214.366 882.067 212.732L881.131 214.5L880.196 216.268C883.003 217.754 885.459 219.476 887.575 221.43L888.931 219.96ZM881.131 214.5L882.145 212.776C879.224 211.058 876.301 209.253 873.378 207.361L872.291 209.04L871.205 210.719C874.175 212.641 877.146 214.476 880.117 216.224L881.131 214.5ZM872.291 209.04L873.305 207.316C870.449 205.636 867.671 203.701 864.973 201.508L863.711 203.06L862.45 204.612C865.298 206.926 868.24 208.977 871.277 210.764L872.291 209.04ZM863.711 203.06L865.028 201.555C862.356 199.216 859.933 196.627 857.76 193.785L856.171 195L854.583 196.215C856.916 199.266 859.52 202.05 862.394 204.565L863.711 203.06ZM856.171 195L857.836 193.891C855.851 190.914 854.188 187.592 852.851 183.917L850.971 184.6L849.092 185.283C850.529 189.235 852.332 192.846 854.507 196.109L856.171 195ZM850.971 184.6L852.885 184.018C851.741 180.26 851.151 175.869 851.151 170.82H849.151H847.151C847.151 176.171 847.775 180.967 849.058 185.182L850.971 184.6ZM849.151 170.82H851.151C851.151 159.998 854.464 151.436 860.966 144.934L859.551 143.52L858.137 142.106C850.772 149.471 847.151 159.109 847.151 170.82H849.151ZM859.551 143.52L860.948 144.952C867.607 138.455 876.6 135.12 888.151 135.12V133.12V131.12C875.783 131.12 865.709 134.718 858.155 142.088L859.551 143.52ZM888.151 133.12V135.12C892.992 135.12 897.559 135.787 901.863 137.112L902.451 135.2L903.04 133.288C898.33 131.839 893.364 131.12 888.151 131.12V133.12ZM902.451 135.2L901.931 137.131C906.346 138.32 909.922 139.659 912.696 141.128L913.631 139.36L914.567 137.592C911.448 135.941 907.57 134.507 902.971 133.269L902.451 135.2ZM913.631 139.36L911.703 138.829L906.763 156.769L908.691 157.3L910.62 157.831L915.56 139.891L913.631 139.36ZM908.691 157.3L909.663 155.552C906.419 153.75 903.153 152.386 899.867 151.473L899.331 153.4L898.796 155.327C901.75 156.147 904.724 157.384 907.72 159.048L908.691 157.3ZM899.331 153.4L899.867 151.473C896.552 150.552 892.99 150.1 889.191 150.1V152.1V154.1C892.673 154.1 895.87 154.514 898.796 155.327L899.331 153.4ZM889.191 152.1V150.1C883.223 150.1 878.256 151.887 874.517 155.626L875.931 157.04L877.346 158.454C880.193 155.606 884.067 154.1 889.191 154.1V152.1ZM875.931 157.04L874.556 155.588C870.743 159.201 868.991 164.397 868.991 170.82H870.991H872.991C872.991 165.11 874.533 161.119 877.307 158.492L875.931 157.04ZM870.991 170.82H868.991C868.991 174.519 869.639 177.852 870.999 180.766L872.811 179.92L874.624 179.074C873.557 176.788 872.991 174.054 872.991 170.82H870.991ZM872.811 179.92L871.023 180.814C872.322 183.414 873.99 185.82 876.017 188.031L877.491 186.68L878.966 185.329C877.18 183.38 875.727 181.279 874.6 179.026L872.811 179.92ZM877.491 186.68L876.14 188.154C878.283 190.119 880.6 191.99 883.089 193.767L884.251 192.14L885.414 190.513C883.05 188.824 880.86 187.055 878.843 185.206L877.491 186.68ZM884.251 192.14L883.142 193.804C885.785 195.566 888.514 197.239 891.331 198.823L892.311 197.08L893.292 195.337C890.562 193.801 887.918 192.181 885.361 190.476L884.251 192.14ZM892.311 197.08L891.309 198.811C894.544 200.684 897.694 202.727 900.76 204.941L901.931 203.32L903.102 201.699C899.929 199.406 896.666 197.29 893.313 195.349L892.311 197.08ZM901.931 203.32L900.802 204.971C903.926 207.108 906.634 209.653 908.933 212.608L910.511 211.38L912.09 210.152C909.535 206.867 906.523 204.038 903.061 201.669L901.931 203.32ZM910.511 211.38L909.012 212.703C911.431 215.445 913.393 218.781 914.879 222.742L916.751 222.04L918.624 221.338C916.99 216.979 914.792 213.208 912.011 210.057L910.511 211.38ZM916.751 222.04L914.889 222.769C916.333 226.46 917.091 231.05 917.091 236.6H919.091H921.091C921.091 230.71 920.29 225.594 918.614 221.311L916.751 222.04ZM919.091 236.6H917.091C917.091 248.136 913.679 257.221 907 264.063L908.431 265.46L909.863 266.857C917.397 259.139 921.091 248.984 921.091 236.6H919.091ZM908.431 265.46L906.983 264.081C900.544 270.842 890.92 274.38 877.751 274.38V276.38V278.38C891.623 278.38 902.452 274.638 909.88 266.839L908.431 265.46ZM877.751 276.38V274.38C871 274.38 864.985 273.452 859.682 271.629L859.031 273.52L858.381 275.411C864.171 277.402 870.636 278.38 877.751 278.38V276.38ZM859.031 273.52L859.682 271.629C854.171 269.734 850.146 268.047 847.532 266.577L846.551 268.32L845.571 270.063C848.503 271.713 852.799 273.492 858.381 275.411L859.031 273.52ZM846.551 268.32L848.49 268.811L853.17 250.352L851.231 249.86L849.293 249.368L844.613 267.829L846.551 268.32ZM851.231 249.86L850.29 251.625C852.98 253.06 856.522 254.65 860.889 256.397L861.631 254.54L862.374 252.683C858.074 250.963 854.682 249.434 852.173 248.095L851.231 249.86ZM861.631 254.54L860.913 256.407C865.674 258.238 870.86 259.14 876.451 259.14V257.14V255.14C871.296 255.14 866.602 254.309 862.349 252.673L861.631 254.54ZM966.885 136.5H964.885V138.5H966.885V136.5ZM1001.2 136.5H1003.2V134.5H1001.2V136.5ZM1001.2 155.74V157.74H1003.2V155.74H1001.2ZM966.885 155.74V153.74H964.885V155.74H966.885ZM971.825 250.64L970.311 251.947L970.343 251.984L970.376 252.019L971.825 250.64ZM993.925 254.8L993.328 252.891L993.31 252.897L993.292 252.903L993.925 254.8ZM1000.94 251.68L1002.89 251.202L1002.22 248.498L999.871 249.993L1000.94 251.68ZM1005.36 269.62L1006.38 271.346L1007.66 270.592L1007.31 269.142L1005.36 269.62ZM953.885 265.2L952.366 266.502L952.383 266.521L952.4 266.54L953.885 265.2ZM944.525 99.84L944.181 97.8697L942.525 98.1586V99.84H944.525ZM966.885 95.94H968.885V93.561L966.541 93.9697L966.885 95.94ZM966.885 136.5V138.5H1001.2V136.5V134.5H966.885V136.5ZM1001.2 136.5H999.205V155.74H1001.2H1003.2V136.5H1001.2ZM1001.2 155.74V153.74H966.885V155.74V157.74H1001.2V155.74ZM966.885 155.74H964.885V230.88H966.885H968.885V155.74H966.885ZM966.885 230.88H964.885C964.885 240.357 966.528 247.567 970.311 251.947L971.825 250.64L973.338 249.333C970.534 246.086 968.885 240.123 968.885 230.88H966.885ZM971.825 250.64L970.376 252.019C974.274 256.112 979.42 258.1 985.605 258.1V256.1V254.1C980.349 254.1 976.309 252.448 973.273 249.261L971.825 250.64ZM985.605 256.1V258.1C988.75 258.1 991.738 257.637 994.557 256.697L993.925 254.8L993.292 252.903C990.911 253.696 988.353 254.1 985.605 254.1V256.1ZM993.925 254.8L994.521 256.709C997.417 255.804 999.928 254.698 1002.02 253.367L1000.94 251.68L999.871 249.993C998.148 251.089 995.979 252.063 993.328 252.891L993.925 254.8ZM1000.94 251.68L999.003 252.158L1003.42 270.098L1005.36 269.62L1007.31 269.142L1002.89 251.202L1000.94 251.68ZM1005.36 269.62L1004.35 267.894C997.544 271.881 990.351 273.86 982.745 273.86V275.86V277.86C991.085 277.86 998.972 275.679 1006.38 271.346L1005.36 269.62ZM982.745 275.86V273.86C970.282 273.86 961.287 270.417 955.369 263.86L953.885 265.2L952.4 266.54C959.309 274.196 969.554 277.86 982.745 277.86V275.86ZM953.885 265.2L955.403 263.898C949.632 257.166 946.525 245.802 946.525 229.32H944.525H942.525C942.525 246.118 945.657 258.674 952.366 266.502L953.885 265.2ZM944.525 229.32H946.525V99.84H944.525H942.525V229.32H944.525ZM944.525 99.84L944.868 101.81L967.228 97.9102L966.885 95.94L966.541 93.9697L944.181 97.8697L944.525 99.84ZM966.885 95.94H964.885V136.5H966.885H968.885V95.94H966.885Z" fill="#2D1D98" mask="url(#path-4-outside-2_249_30)"/>
<mask id="path-6-outside-3_249_30" maskUnits="userSpaceOnUse" x="55" y="68" width="580" height="211" fill="black">
<rect fill="white" x="55" y="68" width="580" height="211"/>
<path d="M157.24 114.14C159.493 124.54 161.92 135.547 164.52 147.16C167.12 158.773 169.807 170.3 172.58 181.74C175.527 193.18 178.473 204.273 181.42 215.02C184.367 225.767 187.14 235.56 189.74 244.4C191.82 234.693 193.813 223.947 195.72 212.16C197.627 200.2 199.447 187.72 201.18 174.72C203.087 161.72 204.82 148.287 206.38 134.42C207.94 120.553 209.24 106.687 210.28 92.82H233.16C229.173 127.66 224.667 159.727 219.64 189.02C214.787 218.313 209.067 246.307 202.48 273H178.82C176.22 264.507 173.36 255.06 170.24 244.66C167.293 234.26 164.347 223.513 161.4 212.42C158.453 201.153 155.593 189.8 152.82 178.36C150.047 166.92 147.533 155.827 145.28 145.08C143.027 155.827 140.513 166.92 137.74 178.36C134.967 189.8 132.107 201.153 129.16 212.42C126.213 223.513 123.18 234.26 120.06 244.66C117.113 255.06 114.34 264.507 111.74 273H88.08C81.4933 246.307 75.6867 218.313 70.66 189.02C65.8067 159.727 61.3867 127.66 57.4 92.82H81.06C82.1 106.687 83.4 120.553 84.96 134.42C86.52 148.113 88.1667 161.547 89.9 174.72C91.8067 187.72 93.7133 200.2 95.62 212.16C97.5267 223.947 99.52 234.693 101.6 244.4C104.2 235.56 106.973 225.767 109.92 215.02C112.867 204.273 115.727 193.18 118.5 181.74C121.447 170.3 124.22 158.773 126.82 147.16C129.42 135.547 131.847 124.54 134.1 114.14H157.24ZM262.075 139.36C266.582 137.453 271.348 135.98 276.375 134.94C281.402 133.727 286.862 133.12 292.755 133.12C304.888 133.12 314.768 136.933 322.395 144.56C330.022 152.013 333.835 163.713 333.835 179.66V270.14C327.595 271.873 321.182 273.26 314.595 274.3C308.182 275.34 301.855 275.86 295.615 275.86C289.375 275.86 283.482 275.08 277.935 273.52C272.562 271.96 267.795 269.447 263.635 265.98C259.648 262.513 256.442 258.18 254.015 252.98C251.588 247.607 250.375 241.107 250.375 233.48C250.375 226.373 251.415 220.22 253.495 215.02C255.748 209.647 258.782 205.227 262.595 201.76C266.408 198.12 270.915 195.433 276.115 193.7C281.315 191.793 286.948 190.84 293.015 190.84C298.735 190.84 305.062 191.533 311.995 192.92V180.44C311.995 170.387 310.002 163.367 306.015 159.38C302.202 155.393 296.655 153.4 289.375 153.4C285.388 153.4 281.575 153.833 277.935 154.7C274.468 155.393 270.742 156.607 266.755 158.34L262.075 139.36ZM272.735 233.22C272.735 241.193 274.815 247.087 278.975 250.9C283.135 254.713 289.028 256.62 296.655 256.62C301.335 256.62 306.448 256.013 311.995 254.8V211.38C306.795 209.993 301.682 209.3 296.655 209.3C293.362 209.3 290.242 209.733 287.295 210.6C284.348 211.293 281.748 212.593 279.495 214.5C277.415 216.233 275.768 218.66 274.555 221.78C273.342 224.727 272.735 228.54 272.735 233.22ZM393.529 136.5H427.849V155.74H393.529V230.88C393.529 240.24 395.176 246.827 398.469 250.64C401.936 254.28 406.529 256.1 412.249 256.1C415.196 256.1 417.969 255.667 420.569 254.8C423.343 253.933 425.683 252.893 427.589 251.68L432.009 269.62C424.903 273.78 417.363 275.86 409.389 275.86C396.563 275.86 386.943 272.307 380.529 265.2C374.289 257.92 371.169 245.96 371.169 229.32V99.84L393.529 95.94V136.5ZM496.595 276.38C487.235 276.38 479.435 274.56 473.195 270.92C466.955 267.28 461.842 262.34 457.855 256.1C454.042 249.687 451.268 242.147 449.535 233.48C447.975 224.813 447.195 215.367 447.195 205.14C447.195 182.607 451.268 165.013 459.415 152.36C467.735 139.533 480.215 133.12 496.855 133.12C501.882 133.12 506.388 133.727 510.375 134.94C514.362 136.153 518.088 137.713 521.555 139.62L515.835 158.08C510.462 154.613 504.482 152.88 497.895 152.88C488.535 152.88 481.602 157.127 477.095 165.62C472.762 174.113 470.595 187.287 470.595 205.14C470.595 212.593 471.028 219.527 471.895 225.94C472.762 232.18 474.235 237.553 476.315 242.06C478.568 246.567 481.428 250.12 484.895 252.72C488.535 255.32 493.128 256.62 498.675 256.62C502.488 256.62 505.868 256.187 508.815 255.32C511.935 254.28 514.882 252.98 517.655 251.42L522.595 268.84C519.822 270.747 516.095 272.48 511.415 274.04C506.908 275.6 501.968 276.38 496.595 276.38ZM546.655 273V75.14L569.015 71.24V137.28C572.308 136.24 575.862 135.373 579.675 134.68C583.662 133.987 587.648 133.64 591.635 133.64C597.355 133.64 602.728 134.593 607.755 136.5C612.782 138.233 617.115 141.267 620.755 145.6C624.568 149.933 627.515 155.827 629.595 163.28C631.848 170.56 632.975 179.66 632.975 190.58V273H610.615V192.4C610.615 178.88 608.882 169 605.415 162.76C601.948 156.52 595.448 153.4 585.915 153.4C580.888 153.4 575.255 154.267 569.015 156V273H546.655Z"/>
</mask>
<path d="M157.24 114.14C159.493 124.54 161.92 135.547 164.52 147.16C167.12 158.773 169.807 170.3 172.58 181.74C175.527 193.18 178.473 204.273 181.42 215.02C184.367 225.767 187.14 235.56 189.74 244.4C191.82 234.693 193.813 223.947 195.72 212.16C197.627 200.2 199.447 187.72 201.18 174.72C203.087 161.72 204.82 148.287 206.38 134.42C207.94 120.553 209.24 106.687 210.28 92.82H233.16C229.173 127.66 224.667 159.727 219.64 189.02C214.787 218.313 209.067 246.307 202.48 273H178.82C176.22 264.507 173.36 255.06 170.24 244.66C167.293 234.26 164.347 223.513 161.4 212.42C158.453 201.153 155.593 189.8 152.82 178.36C150.047 166.92 147.533 155.827 145.28 145.08C143.027 155.827 140.513 166.92 137.74 178.36C134.967 189.8 132.107 201.153 129.16 212.42C126.213 223.513 123.18 234.26 120.06 244.66C117.113 255.06 114.34 264.507 111.74 273H88.08C81.4933 246.307 75.6867 218.313 70.66 189.02C65.8067 159.727 61.3867 127.66 57.4 92.82H81.06C82.1 106.687 83.4 120.553 84.96 134.42C86.52 148.113 88.1667 161.547 89.9 174.72C91.8067 187.72 93.7133 200.2 95.62 212.16C97.5267 223.947 99.52 234.693 101.6 244.4C104.2 235.56 106.973 225.767 109.92 215.02C112.867 204.273 115.727 193.18 118.5 181.74C121.447 170.3 124.22 158.773 126.82 147.16C129.42 135.547 131.847 124.54 134.1 114.14H157.24ZM262.075 139.36C266.582 137.453 271.348 135.98 276.375 134.94C281.402 133.727 286.862 133.12 292.755 133.12C304.888 133.12 314.768 136.933 322.395 144.56C330.022 152.013 333.835 163.713 333.835 179.66V270.14C327.595 271.873 321.182 273.26 314.595 274.3C308.182 275.34 301.855 275.86 295.615 275.86C289.375 275.86 283.482 275.08 277.935 273.52C272.562 271.96 267.795 269.447 263.635 265.98C259.648 262.513 256.442 258.18 254.015 252.98C251.588 247.607 250.375 241.107 250.375 233.48C250.375 226.373 251.415 220.22 253.495 215.02C255.748 209.647 258.782 205.227 262.595 201.76C266.408 198.12 270.915 195.433 276.115 193.7C281.315 191.793 286.948 190.84 293.015 190.84C298.735 190.84 305.062 191.533 311.995 192.92V180.44C311.995 170.387 310.002 163.367 306.015 159.38C302.202 155.393 296.655 153.4 289.375 153.4C285.388 153.4 281.575 153.833 277.935 154.7C274.468 155.393 270.742 156.607 266.755 158.34L262.075 139.36ZM272.735 233.22C272.735 241.193 274.815 247.087 278.975 250.9C283.135 254.713 289.028 256.62 296.655 256.62C301.335 256.62 306.448 256.013 311.995 254.8V211.38C306.795 209.993 301.682 209.3 296.655 209.3C293.362 209.3 290.242 209.733 287.295 210.6C284.348 211.293 281.748 212.593 279.495 214.5C277.415 216.233 275.768 218.66 274.555 221.78C273.342 224.727 272.735 228.54 272.735 233.22ZM393.529 136.5H427.849V155.74H393.529V230.88C393.529 240.24 395.176 246.827 398.469 250.64C401.936 254.28 406.529 256.1 412.249 256.1C415.196 256.1 417.969 255.667 420.569 254.8C423.343 253.933 425.683 252.893 427.589 251.68L432.009 269.62C424.903 273.78 417.363 275.86 409.389 275.86C396.563 275.86 386.943 272.307 380.529 265.2C374.289 257.92 371.169 245.96 371.169 229.32V99.84L393.529 95.94V136.5ZM496.595 276.38C487.235 276.38 479.435 274.56 473.195 270.92C466.955 267.28 461.842 262.34 457.855 256.1C454.042 249.687 451.268 242.147 449.535 233.48C447.975 224.813 447.195 215.367 447.195 205.14C447.195 182.607 451.268 165.013 459.415 152.36C467.735 139.533 480.215 133.12 496.855 133.12C501.882 133.12 506.388 133.727 510.375 134.94C514.362 136.153 518.088 137.713 521.555 139.62L515.835 158.08C510.462 154.613 504.482 152.88 497.895 152.88C488.535 152.88 481.602 157.127 477.095 165.62C472.762 174.113 470.595 187.287 470.595 205.14C470.595 212.593 471.028 219.527 471.895 225.94C472.762 232.18 474.235 237.553 476.315 242.06C478.568 246.567 481.428 250.12 484.895 252.72C488.535 255.32 493.128 256.62 498.675 256.62C502.488 256.62 505.868 256.187 508.815 255.32C511.935 254.28 514.882 252.98 517.655 251.42L522.595 268.84C519.822 270.747 516.095 272.48 511.415 274.04C506.908 275.6 501.968 276.38 496.595 276.38ZM546.655 273V75.14L569.015 71.24V137.28C572.308 136.24 575.862 135.373 579.675 134.68C583.662 133.987 587.648 133.64 591.635 133.64C597.355 133.64 602.728 134.593 607.755 136.5C612.782 138.233 617.115 141.267 620.755 145.6C624.568 149.933 627.515 155.827 629.595 163.28C631.848 170.56 632.975 179.66 632.975 190.58V273H610.615V192.4C610.615 178.88 608.882 169 605.415 162.76C601.948 156.52 595.448 153.4 585.915 153.4C580.888 153.4 575.255 154.267 569.015 156V273H546.655Z" fill="#6F59FA"/>
<path d="M157.24 114.14L159.195 113.716L158.853 112.14H157.24V114.14ZM164.52 147.16L166.472 146.723V146.723L164.52 147.16ZM172.58 181.74L170.636 182.211L170.64 182.225L170.643 182.239L172.58 181.74ZM181.42 215.02L179.491 215.549V215.549L181.42 215.02ZM189.74 244.4L187.821 244.964L191.696 244.819L189.74 244.4ZM195.72 212.16L197.694 212.479L197.695 212.475L195.72 212.16ZM201.18 174.72L199.201 174.43L199.199 174.443L199.198 174.456L201.18 174.72ZM206.38 134.42L204.393 134.196V134.196L206.38 134.42ZM210.28 92.82V90.82H208.424L208.286 92.6704L210.28 92.82ZM233.16 92.82L235.147 93.0474L235.402 90.82H233.16V92.82ZM219.64 189.02L217.669 188.682L217.667 188.693L219.64 189.02ZM202.48 273V275H204.046L204.422 273.479L202.48 273ZM178.82 273L176.908 273.585L177.341 275H178.82V273ZM170.24 244.66L168.316 245.205L168.32 245.22L168.324 245.235L170.24 244.66ZM161.4 212.42L159.465 212.926L159.467 212.933L161.4 212.42ZM152.82 178.36L150.876 178.831V178.831L152.82 178.36ZM145.28 145.08L147.237 144.67H143.323L145.28 145.08ZM137.74 178.36L135.796 177.889V177.889L137.74 178.36ZM129.16 212.42L131.093 212.933L131.095 212.926L129.16 212.42ZM120.06 244.66L118.144 244.085L118.14 244.1L118.136 244.115L120.06 244.66ZM111.74 273V275H113.219L113.652 273.585L111.74 273ZM88.08 273L86.1382 273.479L86.5135 275H88.08V273ZM70.66 189.02L68.6869 189.347L68.6888 189.358L70.66 189.02ZM57.4 92.82V90.82H55.1581L55.413 93.0474L57.4 92.82ZM81.06 92.82L83.0544 92.6704L82.9156 90.82H81.06V92.82ZM84.96 134.42L82.9725 134.644L82.9729 134.646L84.96 134.42ZM89.9 174.72L87.9171 174.981L87.919 174.996L87.9212 175.01L89.9 174.72ZM95.62 212.16L93.6449 212.475L93.6457 212.479L95.62 212.16ZM101.6 244.4L99.6444 244.819L103.519 244.964L101.6 244.4ZM109.92 215.02L111.849 215.549V215.549L109.92 215.02ZM118.5 181.74L116.563 181.241L116.56 181.255L116.556 181.269L118.5 181.74ZM126.82 147.16L124.868 146.723V146.723L126.82 147.16ZM134.1 114.14V112.14H132.487L132.145 113.716L134.1 114.14ZM157.24 114.14L155.285 114.564C157.54 124.968 159.967 135.98 162.568 147.597L164.52 147.16L166.472 146.723C163.873 135.114 161.447 124.112 159.195 113.716L157.24 114.14ZM164.52 147.16L162.568 147.597C165.171 159.222 167.86 170.76 170.636 182.211L172.58 181.74L174.524 181.269C171.753 169.84 169.069 158.325 166.472 146.723L164.52 147.16ZM172.58 181.74L170.643 182.239C173.592 193.688 176.542 204.792 179.491 215.549L181.42 215.02L183.349 214.491C180.405 203.755 177.461 192.672 174.517 181.241L172.58 181.74ZM181.42 215.02L179.491 215.549C182.44 226.305 185.217 236.11 187.821 244.964L189.74 244.4L191.659 243.836C189.063 235.01 186.293 225.228 183.349 214.491L181.42 215.02ZM189.74 244.4L191.696 244.819C193.784 235.074 195.783 224.293 197.694 212.479L195.72 212.16L193.746 211.841C191.843 223.6 189.856 234.313 187.784 243.981L189.74 244.4ZM195.72 212.16L197.695 212.475C199.605 200.497 201.427 188 203.162 174.984L201.18 174.72L199.198 174.456C197.466 187.44 195.649 199.903 193.745 211.845L195.72 212.16ZM201.18 174.72L203.159 175.01C205.069 161.987 206.805 148.531 208.367 134.644L206.38 134.42L204.393 134.196C202.835 148.042 201.104 161.453 199.201 174.43L201.18 174.72ZM206.38 134.42L208.367 134.644C209.93 120.752 211.233 106.861 212.274 92.9696L210.28 92.82L208.286 92.6704C207.247 106.512 205.95 120.354 204.393 134.196L206.38 134.42ZM210.28 92.82V94.82H233.16V92.82V90.82H210.28V92.82ZM233.16 92.82L231.173 92.5926C227.19 127.402 222.688 159.431 217.669 188.682L219.64 189.02L221.611 189.358C226.645 160.022 231.157 127.918 235.147 93.0474L233.16 92.82ZM219.64 189.02L217.667 188.693C212.821 217.939 207.112 245.882 200.538 272.521L202.48 273L204.422 273.479C211.022 246.732 216.752 218.687 221.613 189.347L219.64 189.02ZM202.48 273V271H178.82V273V275H202.48V273ZM178.82 273L180.732 272.415C178.134 263.925 175.275 254.482 172.156 244.085L170.24 244.66L168.324 245.235C171.445 255.638 174.306 265.088 176.908 273.585L178.82 273ZM170.24 244.66L172.164 244.115C169.221 233.726 166.277 222.99 163.333 211.907L161.4 212.42L159.467 212.933C162.416 224.037 165.366 234.794 168.316 245.205L170.24 244.66ZM161.4 212.42L163.335 211.914C160.391 200.659 157.534 189.317 154.764 177.889L152.82 178.36L150.876 178.831C153.652 190.283 156.515 201.648 159.465 212.926L161.4 212.42ZM152.82 178.36L154.764 177.889C151.995 166.468 149.486 155.395 147.237 144.67L145.28 145.08L143.323 145.49C145.58 156.259 148.098 167.372 150.876 178.831L152.82 178.36ZM145.28 145.08L143.323 144.67C141.074 155.395 138.565 166.468 135.796 177.889L137.74 178.36L139.684 178.831C142.462 167.372 144.98 156.259 147.237 145.49L145.28 145.08ZM137.74 178.36L135.796 177.889C133.026 189.317 130.169 200.659 127.225 211.914L129.16 212.42L131.095 212.926C134.045 201.648 136.908 190.283 139.684 178.831L137.74 178.36ZM129.16 212.42L127.227 211.907C124.286 222.981 121.258 233.707 118.144 244.085L120.06 244.66L121.976 245.235C125.102 234.813 128.141 224.046 131.093 212.933L129.16 212.42ZM120.06 244.66L118.136 244.115C115.192 254.504 112.423 263.937 109.828 272.415L111.74 273L113.652 273.585C116.257 265.076 119.035 255.616 121.984 245.205L120.06 244.66ZM111.74 273V271H88.08V273V275H111.74V273ZM88.08 273L90.0218 272.521C83.4475 245.878 77.6504 217.932 72.6312 188.682L70.66 189.02L68.6888 189.358C73.7229 218.695 79.5392 246.736 86.1382 273.479L88.08 273ZM70.66 189.02L72.6331 188.693C67.7861 159.438 63.3706 127.405 59.387 92.5926L57.4 92.82L55.413 93.0474C59.4028 127.915 63.8272 160.015 68.6869 189.347L70.66 189.02ZM57.4 92.82V94.82H81.06V92.82V90.82H57.4V92.82ZM81.06 92.82L79.0656 92.9696C80.1075 106.861 81.4098 120.752 82.9725 134.644L84.96 134.42L86.9475 134.196C85.3902 120.354 84.0925 106.512 83.0544 92.6704L81.06 92.82ZM84.96 134.42L82.9729 134.646C84.5341 148.351 86.1822 161.796 87.9171 174.981L89.9 174.72L91.8829 174.459C90.1511 161.298 88.5059 147.876 86.9472 134.194L84.96 134.42ZM89.9 174.72L87.9212 175.01C89.8289 188.018 91.7369 200.506 93.6449 212.475L95.62 212.16L97.5951 211.845C95.6898 199.894 93.7844 187.422 91.8788 174.43L89.9 174.72ZM95.62 212.16L93.6457 212.479C95.5567 224.293 97.5561 235.074 99.6444 244.819L101.6 244.4L103.556 243.981C101.484 234.313 99.4966 223.6 97.5943 211.841L95.62 212.16ZM101.6 244.4L103.519 244.964C106.123 236.11 108.9 226.305 111.849 215.549L109.92 215.02L107.991 214.491C105.047 225.228 102.277 235.01 99.6813 243.836L101.6 244.4ZM109.92 215.02L111.849 215.549C114.801 204.782 117.666 193.669 120.444 182.211L118.5 181.74L116.556 181.269C113.787 192.691 110.932 203.765 107.991 214.491L109.92 215.02ZM118.5 181.74L120.437 182.239C123.389 170.778 126.167 159.231 128.772 147.597L126.82 147.16L124.868 146.723C122.273 158.316 119.505 169.822 116.563 181.241L118.5 181.74ZM126.82 147.16L128.772 147.597C131.373 135.98 133.8 124.968 136.055 114.564L134.1 114.14L132.145 113.716C129.893 124.112 127.467 135.114 124.868 146.723L126.82 147.16ZM134.1 114.14V116.14H157.24V114.14V112.14H134.1V114.14ZM262.075 139.36L261.296 137.518L259.725 138.183L260.133 139.839L262.075 139.36ZM276.375 134.94L276.78 136.899L276.812 136.892L276.844 136.884L276.375 134.94ZM322.395 144.56L320.981 145.974L320.989 145.982L320.997 145.99L322.395 144.56ZM333.835 270.14L334.37 272.067L335.835 271.66V270.14H333.835ZM314.595 274.3L314.283 272.324L314.275 272.326L314.595 274.3ZM277.935 273.52L277.377 275.441L277.385 275.443L277.393 275.445L277.935 273.52ZM263.635 265.98L262.322 267.489L262.338 267.503L262.354 267.516L263.635 265.98ZM254.015 252.98L252.192 253.803L252.197 253.814L252.202 253.826L254.015 252.98ZM253.495 215.02L251.65 214.247L251.644 214.262L251.638 214.277L253.495 215.02ZM262.595 201.76L263.94 203.24L263.958 203.224L263.976 203.207L262.595 201.76ZM276.115 193.7L276.747 195.597L276.775 195.588L276.803 195.578L276.115 193.7ZM311.995 192.92L311.603 194.881L313.995 195.36V192.92H311.995ZM306.015 159.38L304.57 160.762L304.585 160.779L304.601 160.794L306.015 159.38ZM277.935 154.7L278.327 156.661L278.363 156.654L278.398 156.646L277.935 154.7ZM266.755 158.34L264.813 158.819L265.38 161.119L267.552 160.174L266.755 158.34ZM278.975 250.9L277.623 252.374V252.374L278.975 250.9ZM311.995 254.8L312.422 256.754L313.995 256.41V254.8H311.995ZM311.995 211.38H313.995V209.843L312.51 209.448L311.995 211.38ZM287.295 210.6L287.753 212.547L287.806 212.534L287.859 212.519L287.295 210.6ZM279.495 214.5L280.775 216.036L280.781 216.032L280.787 216.027L279.495 214.5ZM274.555 221.78L276.404 222.542L276.412 222.523L276.419 222.505L274.555 221.78ZM262.075 139.36L262.854 141.202C267.234 139.349 271.875 137.913 276.78 136.899L276.375 134.94L275.97 132.981C270.821 134.047 265.929 135.558 261.296 137.518L262.075 139.36ZM276.375 134.94L276.844 136.884C281.698 135.713 286.998 135.12 292.755 135.12V133.12V131.12C286.725 131.12 281.106 131.741 275.906 132.996L276.375 134.94ZM292.755 133.12V135.12C304.43 135.12 313.777 138.771 320.981 145.974L322.395 144.56L323.809 143.146C315.759 135.096 305.346 131.12 292.755 131.12V133.12ZM322.395 144.56L320.997 145.99C328.083 152.916 331.835 163.987 331.835 179.66H333.835H335.835C335.835 163.44 331.96 151.111 323.793 143.13L322.395 144.56ZM333.835 179.66H331.835V270.14H333.835H335.835V179.66H333.835ZM333.835 270.14L333.3 268.213C327.135 269.925 320.797 271.296 314.283 272.324L314.595 274.3L314.907 276.276C321.567 275.224 328.055 273.821 334.37 272.067L333.835 270.14ZM314.595 274.3L314.275 272.326C307.963 273.349 301.743 273.86 295.615 273.86V275.86V277.86C301.966 277.86 308.4 277.331 314.915 276.274L314.595 274.3ZM295.615 275.86V273.86C289.543 273.86 283.833 273.101 278.476 271.595L277.935 273.52L277.393 275.445C283.13 277.059 289.207 277.86 295.615 277.86V275.86ZM277.935 273.52L278.492 271.599C273.375 270.114 268.856 267.728 264.915 264.444L263.635 265.98L262.354 267.516C266.733 271.166 271.748 273.806 277.377 275.441L277.935 273.52ZM263.635 265.98L264.947 264.471C261.189 261.203 258.146 257.103 255.827 252.134L254.015 252.98L252.202 253.826C254.737 259.257 258.107 263.823 262.322 267.489L263.635 265.98ZM254.015 252.98L255.838 252.157C253.557 247.106 252.375 240.903 252.375 233.48H250.375H248.375C248.375 241.311 249.62 248.107 252.192 253.803L254.015 252.98ZM250.375 233.48H252.375C252.375 226.562 253.388 220.672 255.352 215.763L253.495 215.02L251.638 214.277C249.442 219.768 248.375 226.185 248.375 233.48H250.375ZM253.495 215.02L255.339 215.793C257.495 210.654 260.369 206.486 263.94 203.24L262.595 201.76L261.249 200.28C257.194 203.967 254.002 208.639 251.65 214.247L253.495 215.02ZM262.595 201.76L263.976 203.207C267.567 199.778 271.816 197.241 276.747 195.597L276.115 193.7L275.482 191.803C270.014 193.625 265.249 196.462 261.214 200.313L262.595 201.76ZM276.115 193.7L276.803 195.578C281.763 193.759 287.161 192.84 293.015 192.84V190.84V188.84C286.736 188.84 280.867 189.827 275.426 191.822L276.115 193.7ZM293.015 190.84V192.84C298.577 192.84 304.77 193.515 311.603 194.881L311.995 192.92L312.387 190.959C305.354 189.552 298.893 188.84 293.015 188.84V190.84ZM311.995 192.92H313.995V180.44H311.995H309.995V192.92H311.995ZM311.995 180.44H313.995C313.995 170.237 311.994 162.531 307.429 157.966L306.015 159.38L304.601 160.794C308.009 164.203 309.995 170.536 309.995 180.44H311.995ZM306.015 159.38L307.46 157.998C303.16 153.502 297.019 151.4 289.375 151.4V153.4V155.4C296.291 155.4 301.243 157.285 304.57 160.762L306.015 159.38ZM289.375 153.4V151.4C285.242 151.4 281.273 151.849 277.472 152.754L277.935 154.7L278.398 156.646C281.877 155.817 285.534 155.4 289.375 155.4V153.4ZM277.935 154.7L277.543 152.739C273.909 153.465 270.046 154.728 265.957 156.506L266.755 158.34L267.552 160.174C271.437 158.485 275.027 157.321 278.327 156.661L277.935 154.7ZM266.755 158.34L268.697 157.861L264.017 138.881L262.075 139.36L260.133 139.839L264.813 158.819L266.755 158.34ZM272.735 233.22H270.735C270.735 241.517 272.903 248.047 277.623 252.374L278.975 250.9L280.326 249.426C276.727 246.126 274.735 240.87 274.735 233.22H272.735ZM278.975 250.9L277.623 252.374C282.266 256.63 288.706 258.62 296.655 258.62V256.62V254.62C289.35 254.62 284.004 252.797 280.326 249.426L278.975 250.9ZM296.655 256.62V258.62C301.505 258.62 306.764 257.992 312.422 256.754L311.995 254.8L311.567 252.846C306.133 254.035 301.165 254.62 296.655 254.62V256.62ZM311.995 254.8H313.995V211.38H311.995H309.995V254.8H311.995ZM311.995 211.38L312.51 209.448C307.154 208.019 301.867 207.3 296.655 207.3V209.3V211.3C301.496 211.3 306.436 211.967 311.48 213.312L311.995 211.38ZM296.655 209.3V207.3C293.184 207.3 289.873 207.757 286.731 208.681L287.295 210.6L287.859 212.519C290.61 211.71 293.539 211.3 296.655 211.3V209.3ZM287.295 210.6L286.837 208.653C283.591 209.417 280.703 210.857 278.203 212.973L279.495 214.5L280.787 216.027C282.793 214.329 285.105 213.17 287.753 212.547L287.295 210.6ZM279.495 214.5L278.214 212.964C275.82 214.959 273.998 217.693 272.691 221.055L274.555 221.78L276.419 222.505C277.538 219.627 279.01 217.507 280.775 216.036L279.495 214.5ZM274.555 221.78L272.705 221.018C271.358 224.292 270.735 228.39 270.735 233.22H272.735H274.735C274.735 228.69 275.325 225.161 276.404 222.542L274.555 221.78ZM393.529 136.5H391.529V138.5H393.529V136.5ZM427.849 136.5H429.849V134.5H427.849V136.5ZM427.849 155.74V157.74H429.849V155.74H427.849ZM393.529 155.74V153.74H391.529V155.74H393.529ZM398.469 250.64L396.956 251.947L396.987 251.984L397.021 252.019L398.469 250.64ZM420.569 254.8L419.973 252.891L419.955 252.897L419.937 252.903L420.569 254.8ZM427.589 251.68L429.531 251.202L428.865 248.498L426.515 249.993L427.589 251.68ZM432.009 269.62L433.02 271.346L434.308 270.592L433.951 269.142L432.009 269.62ZM380.529 265.2L379.011 266.502L379.027 266.521L379.044 266.54L380.529 265.2ZM371.169 99.84L370.826 97.8697L369.169 98.1586V99.84H371.169ZM393.529 95.94H395.529V93.561L393.186 93.9697L393.529 95.94ZM393.529 136.5V138.5H427.849V136.5V134.5H393.529V136.5ZM427.849 136.5H425.849V155.74H427.849H429.849V136.5H427.849ZM427.849 155.74V153.74H393.529V155.74V157.74H427.849V155.74ZM393.529 155.74H391.529V230.88H393.529H395.529V155.74H393.529ZM393.529 230.88H391.529C391.529 240.357 393.173 247.567 396.956 251.947L398.469 250.64L399.983 249.333C397.179 246.086 395.529 240.123 395.529 230.88H393.529ZM398.469 250.64L397.021 252.019C400.919 256.112 406.065 258.1 412.249 258.1V256.1V254.1C406.994 254.1 402.953 252.448 399.917 249.261L398.469 250.64ZM412.249 256.1V258.1C415.395 258.1 418.383 257.637 421.202 256.697L420.569 254.8L419.937 252.903C417.555 253.696 414.997 254.1 412.249 254.1V256.1ZM420.569 254.8L421.166 256.709C424.062 255.804 426.572 254.698 428.663 253.367L427.589 251.68L426.515 249.993C424.793 251.089 422.623 252.063 419.973 252.891L420.569 254.8ZM427.589 251.68L425.647 252.158L430.067 270.098L432.009 269.62L433.951 269.142L429.531 251.202L427.589 251.68ZM432.009 269.62L430.999 267.894C424.188 271.881 416.995 273.86 409.389 273.86V275.86V277.86C417.73 277.86 425.617 275.679 433.02 271.346L432.009 269.62ZM409.389 275.86V273.86C396.927 273.86 387.931 270.417 382.014 263.86L380.529 265.2L379.044 266.54C385.954 274.196 396.198 277.86 409.389 277.86V275.86ZM380.529 265.2L382.048 263.898C376.277 257.166 373.169 245.802 373.169 229.32H371.169H369.169C369.169 246.118 372.301 258.674 379.011 266.502L380.529 265.2ZM371.169 229.32H373.169V99.84H371.169H369.169V229.32H371.169ZM371.169 99.84L371.513 101.81L393.873 97.9102L393.529 95.94L393.186 93.9697L370.826 97.8697L371.169 99.84ZM393.529 95.94H391.529V136.5H393.529H395.529V95.94H393.529ZM473.195 270.92L472.187 272.648V272.648L473.195 270.92ZM457.855 256.1L456.136 257.122L456.152 257.15L456.169 257.177L457.855 256.1ZM449.535 233.48L447.566 233.834L447.57 233.853L447.574 233.872L449.535 233.48ZM459.415 152.36L457.737 151.272L457.733 151.277L459.415 152.36ZM510.375 134.94L509.793 136.853H509.793L510.375 134.94ZM521.555 139.62L523.465 140.212L523.948 138.654L522.519 137.868L521.555 139.62ZM515.835 158.08L514.751 159.761L516.965 161.189L517.745 158.672L515.835 158.08ZM477.095 165.62L475.328 164.683L475.321 164.697L475.313 164.711L477.095 165.62ZM471.895 225.94L469.913 226.208L469.914 226.215L471.895 225.94ZM476.315 242.06L474.499 242.898L474.512 242.926L474.526 242.954L476.315 242.06ZM484.895 252.72L483.695 254.32L483.713 254.334L483.732 254.347L484.895 252.72ZM508.815 255.32L509.379 257.239L509.413 257.229L509.447 257.217L508.815 255.32ZM517.655 251.42L519.579 250.874L518.887 248.432L516.674 249.677L517.655 251.42ZM522.595 268.84L523.728 270.488L524.911 269.675L524.519 268.294L522.595 268.84ZM511.415 274.04L510.782 272.143L510.771 272.146L510.761 272.15L511.415 274.04ZM496.595 276.38V274.38C487.487 274.38 480.059 272.609 474.203 269.192L473.195 270.92L472.187 272.648C478.811 276.511 486.983 278.38 496.595 278.38V276.38ZM473.195 270.92L474.203 269.192C468.244 265.717 463.36 261.003 459.54 255.023L457.855 256.1L456.169 257.177C460.323 263.677 465.666 268.843 472.187 272.648L473.195 270.92ZM457.855 256.1L459.574 255.078C455.896 248.891 453.193 241.572 451.496 233.088L449.535 233.48L447.574 233.872C449.343 242.721 452.188 250.482 456.136 257.122L457.855 256.1ZM449.535 233.48L451.503 233.126C449.967 224.593 449.195 215.266 449.195 205.14H447.195H445.195C445.195 215.467 445.982 225.034 447.566 233.834L449.535 233.48ZM447.195 205.14H449.195C449.195 182.812 453.237 165.65 461.096 153.443L459.415 152.36L457.733 151.277C449.299 164.377 445.195 182.401 445.195 205.14H447.195ZM459.415 152.36L461.093 153.448C469.007 141.247 480.821 135.12 496.855 135.12V133.12V131.12C479.608 131.12 466.463 137.819 457.737 151.272L459.415 152.36ZM496.855 133.12V135.12C501.723 135.12 506.029 135.708 509.793 136.853L510.375 134.94L510.957 133.027C506.748 131.745 502.04 131.12 496.855 131.12V133.12ZM510.375 134.94L509.793 136.853C513.654 138.029 517.252 139.536 520.591 141.372L521.555 139.62L522.519 137.868C518.924 135.891 515.069 134.278 510.957 133.027L510.375 134.94ZM521.555 139.62L519.644 139.028L513.924 157.488L515.835 158.08L517.745 158.672L523.465 140.212L521.555 139.62ZM515.835 158.08L516.919 156.399C511.212 152.718 504.854 150.88 497.895 150.88V152.88V154.88C504.109 154.88 509.711 156.509 514.751 159.761L515.835 158.08ZM497.895 152.88V150.88C492.903 150.88 488.456 152.016 484.63 154.359C480.807 156.701 477.718 160.178 475.328 164.683L477.095 165.62L478.862 166.557C480.978 162.569 483.609 159.675 486.719 157.771C489.827 155.867 493.527 154.88 497.895 154.88V152.88ZM477.095 165.62L475.313 164.711C470.759 173.637 468.595 187.201 468.595 205.14H470.595H472.595C472.595 187.373 474.764 174.59 478.876 166.529L477.095 165.62ZM470.595 205.14H468.595C468.595 212.67 469.033 219.694 469.913 226.208L471.895 225.94L473.877 225.672C473.024 219.36 472.595 212.517 472.595 205.14H470.595ZM471.895 225.94L469.914 226.215C470.801 232.6 472.318 238.172 474.499 242.898L476.315 242.06L478.131 241.222C476.152 236.934 474.722 231.76 473.876 225.665L471.895 225.94ZM476.315 242.06L474.526 242.954C476.896 247.694 479.942 251.506 483.695 254.32L484.895 252.72L486.095 251.12C482.914 248.734 480.241 245.44 478.104 241.166L476.315 242.06ZM484.895 252.72L483.732 254.347C487.786 257.243 492.813 258.62 498.675 258.62V256.62V254.62C493.444 254.62 489.284 253.397 486.057 251.093L484.895 252.72ZM498.675 256.62V258.62C502.635 258.62 506.211 258.17 509.379 257.239L508.815 255.32L508.251 253.401C505.525 254.203 502.341 254.62 498.675 254.62V256.62ZM508.815 255.32L509.447 257.217C512.684 256.138 515.748 254.788 518.635 253.163L517.655 251.42L516.674 249.677C514.016 251.172 511.186 252.422 508.182 253.423L508.815 255.32ZM517.655 251.42L515.731 251.966L520.671 269.386L522.595 268.84L524.519 268.294L519.579 250.874L517.655 251.42ZM522.595 268.84L521.462 267.192C518.896 268.956 515.359 270.617 510.782 272.143L511.415 274.04L512.047 275.937C516.83 274.343 520.747 272.538 523.728 270.488L522.595 268.84ZM511.415 274.04L510.761 272.15C506.489 273.629 501.773 274.38 496.595 274.38V276.38V278.38C502.163 278.38 507.327 277.571 512.069 275.93L511.415 274.04ZM546.655 273H544.655V275H546.655V273ZM546.655 75.14L546.311 73.1697L544.655 73.4586V75.14H546.655ZM569.015 71.24H571.015V68.861L568.671 69.2697L569.015 71.24ZM569.015 137.28H567.015V140.009L569.617 139.187L569.015 137.28ZM579.675 134.68L579.332 132.71L579.325 132.711L579.317 132.712L579.675 134.68ZM607.755 136.5L607.046 138.37L607.074 138.381L607.103 138.391L607.755 136.5ZM620.755 145.6L619.224 146.886L619.238 146.904L619.254 146.921L620.755 145.6ZM629.595 163.28L627.669 163.818L627.676 163.845L627.684 163.871L629.595 163.28ZM632.975 273V275H634.975V273H632.975ZM610.615 273H608.615V275H610.615V273ZM605.415 162.76L607.163 161.789V161.789L605.415 162.76ZM569.015 156L568.48 154.073L567.015 154.48V156H569.015ZM569.015 273V275H571.015V273H569.015ZM546.655 273H548.655V75.14H546.655H544.655V273H546.655ZM546.655 75.14L546.999 77.1102L569.359 73.2103L569.015 71.24L568.671 69.2697L546.311 73.1697L546.655 75.14ZM569.015 71.24H567.015V137.28H569.015H571.015V71.24H569.015ZM569.015 137.28L569.617 139.187C572.821 138.175 576.292 137.328 580.033 136.648L579.675 134.68L579.317 132.712C575.431 133.419 571.795 134.305 568.413 135.373L569.015 137.28ZM579.675 134.68L580.018 136.65C583.893 135.976 587.765 135.64 591.635 135.64V133.64V131.64C587.532 131.64 583.43 131.997 579.332 132.71L579.675 134.68ZM591.635 133.64V135.64C597.128 135.64 602.26 136.555 607.046 138.37L607.755 136.5L608.464 134.63C603.197 132.632 597.582 131.64 591.635 131.64V133.64ZM607.755 136.5L607.103 138.391C611.765 139.998 615.801 142.812 619.224 146.886L620.755 145.6L622.286 144.314C618.429 139.721 613.798 136.468 608.407 134.609L607.755 136.5ZM620.755 145.6L619.254 146.921C622.812 150.965 625.643 156.56 627.669 163.818L629.595 163.28L631.521 162.742C629.387 155.093 626.324 148.901 622.256 144.279L620.755 145.6ZM629.595 163.28L627.684 163.871C629.859 170.897 630.975 179.781 630.975 190.58H632.975H634.975C634.975 179.539 633.838 170.223 631.506 162.689L629.595 163.28ZM632.975 190.58H630.975V273H632.975H634.975V190.58H632.975ZM632.975 273V271H610.615V273V275H632.975V273ZM610.615 273H612.615V192.4H610.615H608.615V273H610.615ZM610.615 192.4H612.615C612.615 178.794 610.885 168.488 607.163 161.789L605.415 162.76L603.667 163.731C606.878 169.512 608.615 178.966 608.615 192.4H610.615ZM605.415 162.76L607.163 161.789C603.226 154.702 595.895 151.4 585.915 151.4V153.4V155.4C595.001 155.4 600.67 158.338 603.667 163.731L605.415 162.76ZM585.915 153.4V151.4C580.664 151.4 574.847 152.304 568.48 154.073L569.015 156L569.55 157.927C575.663 156.229 581.113 155.4 585.915 155.4V153.4ZM569.015 156H567.015V273H569.015H571.015V156H569.015ZM569.015 273V271H546.655V273V275H569.015V273Z" fill="#2D1D98" mask="url(#path-6-outside-3_249_30)"/>
</g>
<defs>
<clipPath id="clip0_249_30">
<rect width="1010" height="418" fill="white" transform="matrix(-1 0 0 1 1010 0)"/>
</clipPath>
</defs>
</svg>
